<?xml version="1.0" encoding="UTF-8"?>
<svg width="1200pt" height="1200pt" version="1.1" viewBox="0 0 1200 1200" xmlns="http://www.w3.org/2000/svg">
    <rect x="0" y="0" width="1200" height="1200" fill="#FFFFD2" />
    <g transform="translate(65,60) scale(0.9)">
        <path fill="#118DF0"
            d="m1067.7 385.43c0-7.1641-3.8164-13.766-10.008-17.34-6.1914-3.5742-13.801-3.5508-19.992 0.023437l-386.43 223.1c-20.555 11.867-33.227 33.793-33.227 57.539v446.22c0 7.1406 3.8047 13.738 9.9961 17.305 6.1797 3.5742 13.801 3.5898 20.004 0.011718l371.65-214.57c29.711-17.16 48-48.84 48-83.148z" />
        <path fill="#118DF0"
            d="m162.35 368.1c-6.1914-3.5625-13.801-3.5742-19.992 0-6.1914 3.5742-10.008 10.164-10.008 17.305v0.023438 429.14c0 34.297 18.301 65.988 48 83.148l371.65 214.56s0.011719 0.011719 0.023438 0.011719c6.1914 3.5742 13.812 3.5625 20.004-0.011719 6.1797-3.5742 9.9727-10.188 9.9727-17.316v-446.22c0-23.746-12.66-45.672-33.227-57.539z" />
        <path fill="#118DF0"
            d="m1019.7 336.94c6.1914-3.5625 9.9961-10.164 10.008-17.305 0-7.1406-3.793-13.754-9.9844-17.316 0 0-0.011719-0.011718-0.023437-0.011718l-371.65-214.59c-29.711-17.148-66.301-17.148-96 0l-371.65 214.56c-0.011718 0-0.023437 0.011719-0.023437 0.011719-6.1914 3.5742-9.9961 10.188-9.9961 17.328 0.011719 7.1523 3.8281 13.727 10.02 17.305l386.43 223.11c20.555 11.867 45.887 11.867 66.445 0z" />
    </g>
</svg>